<svg width="320" height="420" viewBox="0 0 320 420" xmlns="http://www.w3.org/2000/svg" role="img" aria-labelledby="title desc">
  <title id="title">Basit Hesap Makinesi Görseli</title>
  <desc id="desc">Yuvarlatılmış köşeli gri gövde, mavi ekran ve renkli düğmelerden oluşan minimal bir hesap makinesi çizimi.</desc>
  <defs>
    <linearGradient id="body" x1="0" x2="0" y1="0" y2="1">
      <stop offset="0%" stop-color="#f5f7fa"/>
      <stop offset="100%" stop-color="#cfd8dc"/>
    </linearGradient>
    <linearGradient id="screen" x1="0" x2="0" y1="0" y2="1">
      <stop offset="0%" stop-color="#d7ecff"/>
      <stop offset="100%" stop-color="#a4c8f4"/>
    </linearGradient>
    <filter id="shadow" x="-10%" y="-10%" width="120%" height="120%">
      <feDropShadow dx="0" dy="6" stdDeviation="8" flood-color="#263238" flood-opacity="0.18"/>
    </filter>
  </defs>
  <rect x="20" y="20" width="280" height="380" rx="28" fill="url(#body)" stroke="#90a4ae" stroke-width="2" filter="url(#shadow)"/>
  <rect x="44" y="44" width="232" height="84" rx="12" fill="url(#screen)" stroke="#90a4ae" stroke-width="1.5"/>
  <text x="60" y="98" font-family="'Inter', 'Segoe UI', Arial, sans-serif" font-size="32" font-weight="600" fill="#0d47a1">123,45</text>
  <text x="60" y="72" font-family="'Inter', 'Segoe UI', Arial, sans-serif" font-size="16" fill="#546e7a">Toplama örneği</text>
  <g fill="#eceff1" stroke="#90a4ae" stroke-width="1.5" font-family="'Inter', 'Segoe UI', Arial, sans-serif" font-size="18" font-weight="600">
    <rect x="44" y="150" width="232" height="232" rx="18" fill="#e8ebed"/>
    <g fill="#fafbfc">
      <rect x="62" y="168" width="54" height="54" rx="10"/>
      <rect x="132" y="168" width="54" height="54" rx="10"/>
      <rect x="202" y="168" width="54" height="54" rx="10"/>

      <rect x="62" y="238" width="54" height="54" rx="10"/>
      <rect x="132" y="238" width="54" height="54" rx="10"/>
      <rect x="202" y="238" width="54" height="54" rx="10"/>

      <rect x="62" y="308" width="54" height="54" rx="10"/>
      <rect x="132" y="308" width="54" height="54" rx="10"/>
      <rect x="202" y="308" width="54" height="54" rx="10"/>
    </g>
    <g fill="#4caf50" stroke="#2e7d32" stroke-width="1.2">
      <rect x="62" y="378" width="124" height="24" rx="8"/>
      <text x="124" y="395" text-anchor="middle" fill="#ffffff" font-size="14" font-weight="700">Hesapla</text>
    </g>
    <g fill="#ffcc80" stroke="#fb8c00" stroke-width="1.2">
      <rect x="202" y="378" width="54" height="24" rx="8"/>
      <text x="229" y="395" text-anchor="middle" fill="#4e342e" font-size="14" font-weight="700">C</text>
    </g>
  </g>
  <g fill="#263238" font-family="'Inter', 'Segoe UI', Arial, sans-serif" font-size="20" font-weight="600">
    <text x="88" y="202">7</text>
    <text x="158" y="202">8</text>
    <text x="228" y="202">9</text>
    <text x="88" y="272">4</text>
    <text x="158" y="272">5</text>
    <text x="228" y="272">6</text>
    <text x="88" y="342">1</text>
    <text x="158" y="342">2</text>
    <text x="228" y="342">3</text>
  </g>
  <g fill="#0277bd" font-family="'Inter', 'Segoe UI', Arial, sans-serif" font-size="20" font-weight="700">
    <text x="74" y="205">+</text>
    <text x="144" y="205">-</text>
    <text x="214" y="205">×</text>
    <text x="74" y="275">÷</text>
    <text x="144" y="275">%</text>
    <text x="214" y="275">=</text>
    <text x="74" y="345">±</text>
    <text x="144" y="345">0</text>
    <text x="214" y="345">.</text>
  </g>
</svg>
